<svg width="159.000000" height="50.000000" viewBox="0 0 159 50" fill="none" xmlns="http://www.w3.org/2000/svg" xmlns:xlink="http://www.w3.org/1999/xlink">
	<desc>
			Created with Pixso.
	</desc>
	<defs>
		<clipPath id="clip34_1670">
			<rect rx="0.000000" width="158.000000" height="49.000000" transform="translate(0.500000 0.500000)" fill="white" fill-opacity="0"/>
		</clipPath>
	</defs>
	<rect rx="0.000000" width="158.000000" height="49.000000" transform="translate(0.500000 0.500000)" fill="#FFFFFF" fill-opacity="0"/>
	<g clip-path="url(#clip34_1670)">
		<path d="M45.58 35.43C45.33 34.82 45.09 34.18 44.84 33.63L43.69 31.03L43.64 30.98C40.21 23.48 36.55 15.85 32.67 8.35L32.51 8.04C32.12 7.31 31.73 6.49 31.33 5.74C30.83 4.85 30.35 3.9 29.55 2.99C28.78 2.05 27.8 1.28 26.7 0.76C25.59 0.23 24.38 -0.04 23.16 -0.04C21.94 -0.04 20.73 0.23 19.62 0.76C18.52 1.28 17.54 2.05 16.77 2.99C16.04 3.9 15.49 4.85 14.99 5.74C14.6 6.56 14.21 7.35 13.81 8.09L13.65 8.4C9.83 15.9 6.11 23.53 2.68 31.03L2.58 31.12C2.24 31.93 1.83 32.78 1.44 33.68C1.2 34.23 0.95 34.82 0.7 35.48C0.02 37.2 -0.19 39.06 0.07 40.89C0.34 42.72 1.07 44.44 2.2 45.9C3.34 47.35 4.83 48.49 6.53 49.19C8.24 49.89 10.09 50.14 11.92 49.9C13.67 49.67 15.36 49.08 16.88 48.18C18.9 47.04 20.85 45.38 23.03 42.99C25.22 45.38 27.21 47.04 29.19 48.2C31.1 49.32 33.25 49.94 35.46 49.99C38.01 50 40.49 49.09 42.42 47.41C44.35 45.74 45.62 43.42 45.98 40.88C46.4 39.06 46.26 37.16 45.58 35.42L45.58 35.43ZM23.19 38.03C20.51 34.59 18.76 31.43 18.17 28.73C17.93 27.73 17.87 26.69 18.02 25.67C18.12 24.87 18.42 24.17 18.83 23.57C19.76 22.21 21.4 21.37 23.19 21.37C24.04 21.34 24.89 21.53 25.65 21.91C26.41 22.29 27.07 22.86 27.56 23.56C27.96 24.18 28.26 24.87 28.35 25.67C28.51 26.57 28.44 27.62 28.19 28.73C27.6 31.38 25.86 34.57 23.19 38.03ZM43.05 40.34C42.87 41.62 42.36 42.84 41.57 43.87C40.78 44.9 39.73 45.7 38.53 46.2C37.34 46.7 36.04 46.84 34.76 46.7C33.51 46.54 32.26 46.13 30.98 45.38C28.86 44.07 26.95 42.44 25.33 40.54C28.6 36.48 30.58 32.78 31.33 29.48C31.69 27.92 31.73 26.51 31.58 25.21C31.38 23.98 30.92 22.81 30.24 21.78C29.45 20.65 28.4 19.74 27.18 19.12C25.96 18.5 24.61 18.19 23.24 18.21C20.35 18.21 17.78 19.56 16.22 21.76C15.52 22.79 15.07 23.97 14.9 25.21C14.69 26.53 14.74 27.98 15.15 29.48C15.9 32.78 17.92 36.53 21.15 40.57C19.55 42.5 17.64 44.15 15.49 45.45C14.2 46.2 12.96 46.59 11.72 46.74C9.78 46.99 7.82 46.46 6.27 45.27C4.71 44.08 3.69 42.33 3.42 40.38C3.27 39.13 3.38 37.88 3.88 36.48C4.03 35.98 4.27 35.48 4.52 34.88C4.86 34.07 5.26 33.23 5.65 32.38L5.72 32.28C9.08 24.82 12.76 17.21 16.58 9.76L16.74 9.45C17.13 8.7 17.52 7.9 17.92 7.15C18.33 6.35 18.76 5.59 19.32 4.96C19.81 4.38 20.42 3.91 21.1 3.59C21.79 3.27 22.54 3.11 23.29 3.11C24.05 3.11 24.8 3.27 25.48 3.59C26.17 3.91 26.77 4.38 27.26 4.96C27.8 5.59 28.26 6.35 28.66 7.15C29.05 7.9 29.44 8.71 29.85 9.45L30 9.76C33.81 17.21 37.48 24.82 40.91 32.28L40.96 32.32C41.37 33.13 41.71 34.04 42.1 34.82C42.35 35.43 42.6 35.92 42.75 36.43C43.05 37.84 43.21 39.09 43.05 40.34ZM64.75 37.68C63.57 37.7 62.41 37.45 61.34 36.96C60.28 36.46 59.34 35.73 58.59 34.82C56.91 32.88 56.02 30.39 56.1 27.82C56.07 25.2 56.99 22.66 58.68 20.67C59.47 19.74 60.44 19.01 61.54 18.51C62.64 18 63.84 17.75 65.04 17.76C66.18 17.73 67.31 17.99 68.32 18.51C69.32 19.04 70.18 19.81 70.81 20.76L70.97 18.31L75.52 18.31L75.52 37.18L70.95 37.18L70.8 34.43C70.15 35.44 69.25 36.28 68.19 36.84C67.14 37.41 65.95 37.7 64.75 37.68ZM65.93 33.18C66.84 33.18 67.63 32.93 68.38 32.48C69.07 31.98 69.63 31.32 70.06 30.53C70.45 29.73 70.66 28.78 70.66 27.71C70.72 26.79 70.54 25.87 70.14 25.03C69.73 24.2 69.12 23.49 68.37 22.96C67.64 22.51 66.79 22.27 65.93 22.27C65.07 22.27 64.23 22.51 63.5 22.96C62.82 23.46 62.25 24.12 61.82 24.92C61.41 25.79 61.2 26.76 61.23 27.73C61.16 28.65 61.34 29.57 61.75 30.41C62.15 31.24 62.76 31.95 63.52 32.48C64.25 32.93 65.04 33.18 65.93 33.18ZM83.31 13.21C83.31 13.76 83.22 14.26 82.97 14.67C82.72 15.06 82.38 15.42 81.93 15.67C81.47 15.92 80.99 16.01 80.49 16.01C79.99 16.01 79.5 15.92 79.04 15.67C78.62 15.43 78.26 15.08 78 14.67C77.76 14.22 77.64 13.72 77.66 13.21C77.66 12.65 77.76 12.15 78 11.76C78.25 11.29 78.61 11.01 79.04 10.76C79.5 10.51 79.98 10.4 80.49 10.4C80.99 10.39 81.48 10.51 81.92 10.74C82.35 10.98 82.72 11.32 82.99 11.74C83.21 12.2 83.33 12.7 83.31 13.21ZM78.01 37.12L78.01 18.28L82.97 18.28L82.97 37.15L78 37.15L78.01 37.12ZM96.22 23.21L96.22 23.28C95.99 23.17 95.68 23.12 95.44 23.07C95.13 23.01 94.88 23.01 94.58 23.01C93.2 23.01 92.15 23.42 91.47 24.26C90.72 25.12 90.38 26.32 90.38 27.87L90.38 37.13L85.4 37.13L85.4 18.26L89.97 18.26L90.13 21.12C90.63 20.12 91.22 19.37 92.06 18.81C92.9 18.26 93.88 17.99 94.88 18.03C95.24 18.03 95.58 18.06 95.88 18.12C96.03 18.17 96.13 18.17 96.22 18.21L96.22 23.21ZM98.22 37.12L98.22 10.53L103.17 10.53L103.17 20.68C103.88 19.78 104.67 19.07 105.67 18.53C107.25 17.75 109.04 17.53 110.76 17.9C112.48 18.27 114.03 19.21 115.15 20.57C116.83 22.51 117.72 25.02 117.64 27.59C117.67 30.21 116.75 32.75 115.05 34.74C114.27 35.66 113.29 36.4 112.19 36.9C111.1 37.41 109.9 37.66 108.69 37.65C107.56 37.68 106.43 37.42 105.42 36.9C104.41 36.37 103.55 35.6 102.92 34.65L102.77 37.1L98.22 37.15L98.22 37.12ZM107.8 33.18C108.69 33.18 109.49 32.93 110.24 32.48C110.92 31.98 111.48 31.32 111.92 30.53C112.32 29.73 112.51 28.78 112.51 27.71C112.51 26.67 112.32 25.71 111.92 24.92C111.51 24.15 110.93 23.48 110.24 22.96C109.51 22.51 108.66 22.27 107.8 22.27C106.94 22.27 106.1 22.51 105.37 22.96C104.67 23.46 104.12 24.12 103.67 24.92C103.26 25.79 103.06 26.76 103.08 27.73C103.02 28.65 103.2 29.57 103.6 30.41C104 31.24 104.61 31.95 105.37 32.48C106.1 32.93 106.9 33.18 107.8 33.18ZM119.51 37.13L119.51 18.26L124.08 18.26L124.23 20.71C124.81 19.77 125.62 19 126.59 18.48C127.56 17.96 128.65 17.71 129.75 17.76C131.01 17.74 132.24 18.09 133.3 18.77C134.36 19.44 135.2 20.42 135.71 21.57C136.25 22.76 136.55 24.23 136.55 25.87L136.55 37.18L131.58 37.18L131.58 26.53C131.58 25.21 131.28 24.18 130.69 23.42C130.09 22.67 129.28 22.26 128.25 22.26C127.51 22.26 126.85 22.42 126.28 22.76C125.73 23.12 125.28 23.57 124.94 24.21C124.59 24.86 124.42 25.59 124.44 26.32L124.44 37.13L119.51 37.13ZM139.03 37.13L139.03 10.51L144 10.51L144 20.67C144.67 19.75 145.55 19.01 146.56 18.5C147.57 17.99 148.68 17.72 149.81 17.71C150.99 17.7 152.15 17.94 153.22 18.44C154.28 18.93 155.22 19.66 155.97 20.57C157.64 22.51 158.52 25.01 158.45 27.57C158.48 30.19 157.56 32.73 155.86 34.73C155.08 35.65 154.1 36.39 153 36.89C151.91 37.39 150.71 37.65 149.5 37.63C148.37 37.67 147.24 37.41 146.23 36.88C145.22 36.36 144.36 35.58 143.73 34.63L143.59 37.09L139.03 37.13ZM148.66 33.18C149.56 33.18 150.36 32.93 151.09 32.48C151.79 31.98 152.34 31.32 152.79 30.53C153.18 29.73 153.38 28.78 153.38 27.71C153.44 26.79 153.27 25.87 152.86 25.03C152.46 24.2 151.85 23.49 151.09 22.96C150.36 22.51 149.52 22.27 148.66 22.27C147.8 22.27 146.96 22.51 146.23 22.96C145.54 23.46 144.98 24.12 144.55 24.92C144.11 25.79 143.91 26.76 143.95 27.73C143.89 28.65 144.07 29.57 144.47 30.41C144.87 31.24 145.49 31.95 146.24 32.48C146.98 32.93 147.73 33.18 148.66 33.18Z" fill="#FF385C" fill-opacity="1.000000" fill-rule="nonzero"/>
	</g>
</svg>
