<svg width="54.000000" height="61.887634" viewBox="0 0 54 61.8876" fill="none" xmlns="http://www.w3.org/2000/svg" xmlns:xlink="http://www.w3.org/1999/xlink">
	<desc>
			Created with Pixso.
	</desc>
	<defs>
		<clipPath id="clip1_549">
			<rect rx="0.000000" width="53.000000" height="60.887642" transform="translate(0.500000 0.500000)" fill="white" fill-opacity="0"/>
		</clipPath>
	</defs>
	<rect rx="0.000000" width="53.000000" height="60.887642" transform="translate(0.500000 0.500000)" fill="#FFFFFF" fill-opacity="0"/>
	<g clip-path="url(#clip1_549)">
		<rect rx="19.000000" width="54.000000" height="54.000000" fill="#4D8DFF" fill-opacity="1.000000"/>
		<path d="M28.65 25.9L27.48 25.35L27.48 24.3C27.48 23.8 27.07 23.39 26.57 23.39C26.07 23.39 25.66 23.8 25.66 24.3L25.66 29.76C25.66 31.85 23.92 33.54 21.83 33.54C19.71 33.54 18 31.83 18 29.71L18 27.33L20.92 27.33L20.92 29.67C20.92 30.18 21.33 30.58 21.83 30.58C22.33 30.58 22.75 30.18 22.75 29.67L22.75 24.14C22.75 22.09 24.5 20.45 26.57 20.45C28.65 20.45 30.39 22.1 30.39 24.16L30.39 25.38L28.65 25.9ZM32.21 29.79L32.21 27.33L35.14 27.33L35.14 29.71C35.14 31.83 33.42 33.54 31.31 33.54C29.2 33.54 27.48 31.84 27.48 29.75L27.48 27.35L28.65 27.9L30.39 27.38L30.39 29.79C30.39 30.29 30.8 30.69 31.3 30.69C31.8 30.69 32.21 30.29 32.21 29.79Z" fill="#FFFFFF" fill-opacity="1.000000" fill-rule="evenodd"/>
	</g>
</svg>
