<svg width="54.000000" height="54.000000" viewBox="0 0 54 54" fill="none" xmlns="http://www.w3.org/2000/svg" xmlns:xlink="http://www.w3.org/1999/xlink">
	<desc>
			Created with Pixso.
	</desc>
	<defs>
		<clipPath id="clip1_565">
			<rect rx="0.000000" width="53.000000" height="53.000000" transform="translate(0.500000 0.500000)" fill="white" fill-opacity="0"/>
		</clipPath>
	</defs>
	<rect rx="0.000000" width="53.000000" height="53.000000" transform="translate(0.500000 0.500000)" fill="#FFFFFF" fill-opacity="0"/>
	<g clip-path="url(#clip1_565)">
		<rect rx="19.000000" width="54.000000" height="54.000000" fill="#F03E3D" fill-opacity="1.000000"/>
		<path d="M33.42 20.14L32.57 20.14C32.57 23.44 30.99 25.83 29.24 27C30.99 28.16 32.57 30.55 32.57 33.85L33.42 33.85C33.58 33.85 33.71 33.98 33.71 34.14L33.71 34.71C33.71 34.87 33.58 35 33.42 35L20.28 35C20.12 35 20 34.87 20 34.71L20 34.14C20 33.98 20.12 33.85 20.28 33.85L21.14 33.85C21.14 30.55 22.72 28.16 24.47 27C22.72 25.83 21.14 23.44 21.14 20.14L20.28 20.14C20.12 20.14 20 20.01 20 19.85L20 19.28C20 19.12 20.12 19 20.28 19L33.42 19C33.58 19 33.71 19.12 33.71 19.28L33.71 19.85C33.71 20.01 33.58 20.14 33.42 20.14ZM30.66 23.57C31.13 22.59 31.42 21.44 31.42 20.14L22.28 20.14C22.28 21.44 22.58 22.59 23.04 23.57L30.66 23.57ZM22.79 31L30.91 31C30.25 29.27 29.07 28.05 27.88 27.57L25.83 27.57C24.64 28.05 23.45 29.27 22.79 31Z" fill="#FFFFFF" fill-opacity="1.000000" fill-rule="evenodd"/>
	</g>
</svg>
