<svg width="16.000000" height="13.714233" viewBox="0 0 16 13.7142" fill="none" xmlns="http://www.w3.org/2000/svg" xmlns:xlink="http://www.w3.org/1999/xlink">
	<desc>
			Created with Pixso.
	</desc>
	<defs/>
	<path id="" d="M8.39 13.55C8.28 13.66 8.14 13.71 8 13.71C7.85 13.71 7.71 13.66 7.6 13.55L2.03 8.17C1.96 8.11 0 6.32 0 4.17C0 1.56 1.59 -2.68e-5 4.26 -2.68e-5C5.83 -2.68e-5 7.29 1.23 8 1.92C8.7 1.23 10.16 -2.68e-5 11.73 -2.68e-5C14.4 -2.68e-5 16 1.56 16 4.17C16 6.32 14.03 8.11 13.95 8.19L8.39 13.55Z" fill="#FFFFFF" fill-opacity="1.000000" fill-rule="evenodd"/>
</svg>
