<svg width="54.000000" height="61.887634" viewBox="0 0 54 61.8876" fill="none" xmlns="http://www.w3.org/2000/svg" xmlns:xlink="http://www.w3.org/1999/xlink">
	<desc>
			Created with Pixso.
	</desc>
	<defs>
		<clipPath id="clip1_557">
			<rect rx="0.000000" width="53.000000" height="60.887642" transform="translate(0.500000 0.500000)" fill="white" fill-opacity="0"/>
		</clipPath>
	</defs>
	<rect rx="0.000000" width="53.000000" height="60.887642" transform="translate(0.500000 0.500000)" fill="#FFFFFF" fill-opacity="0"/>
	<g clip-path="url(#clip1_557)">
		<rect rx="19.000000" width="54.000000" height="54.000000" fill="#740A76" fill-opacity="1.000000"/>
		<path d="M27.39 33.69C27.28 33.8 27.14 33.85 27 33.85C26.85 33.85 26.71 33.8 26.6 33.69L21.03 28.32C20.96 28.25 19 26.46 19 24.32C19 21.7 20.59 20.14 23.26 20.14C24.83 20.14 26.29 21.37 27 22.07C27.7 21.37 29.16 20.14 30.73 20.14C33.4 20.14 35 21.7 35 24.32C35 26.46 33.03 28.25 32.95 28.33L27.39 33.69Z" fill="#FFFFFF" fill-opacity="1.000000" fill-rule="evenodd"/>
	</g>
</svg>
