<svg aria-hidden="true" style="position: absolute; width: 0; height: 0; overflow: hidden;" version="1.1" xmlns="http://www.w3.org/2000/svg" xmlns:xlink="http://www.w3.org/1999/xlink">
    <defs>
        <symbol id="icon-heart" viewBox="0 0 37 32">
            <path d="M19.577 31.617c-0.257 0.257-0.583 0.373-0.91 0.373-0.35 0-0.677-0.117-0.933-0.373l-12.997-12.553c-0.163-0.14-4.737-4.317-4.737-9.333 0-6.090 3.71-9.73 9.94-9.73 3.663 0 7.070 2.87 8.727 4.48 1.633-1.61 5.040-4.48 8.703-4.48 6.23 0 9.963 3.64 9.963 9.73 0 5.017-4.597 9.193-4.783 9.38l-12.973 12.507z"></path>
        </symbol>
        <symbol id="icon-line" viewBox="0 0 42 32">
            <path d="M26.037 13.3l-2.86-1.32v-2.591c0-1.222-1.002-2.225-2.225-2.225s-2.225 1.002-2.225 2.225v13.373c0 5.11-4.254 9.217-9.363 9.217-5.183 0-9.363-4.181-9.363-9.363v-5.794h7.139v5.721c0 1.247 1.002 2.225 2.225 2.225s2.249-0.978 2.249-2.225v-13.544c0-4.987 4.278-8.997 9.339-8.997 5.085 0 9.339 4.034 9.339 9.070v2.958l-4.254 1.271zM34.74 22.81v-5.99h7.163v5.794c0 5.183-4.205 9.363-9.363 9.363s-9.363-4.132-9.363-9.266v-5.843l2.86 1.32 4.254-1.271v5.892c0 1.222 1.002 2.225 2.225 2.225s2.225-1.002 2.225-2.225z"></path>
        </symbol>
        <symbol id="icon-pointer" viewBox="0 0 21 32">
            <path d="M1.94 0.32l18.279 18.299c0.34 0.32 0.44 0.82 0.26 1.22-0.18 0.44-0.6 0.72-1.060 0.72h-6.82l3.58 8.5c0.26 0.6-0.020 1.26-0.6 1.5l-3.16 1.34c-0.6 0.26-1.26-0.040-1.5-0.6l-3.42-8.080-5.56 5.58c-0.22 0.2-0.5 0.34-0.8 0.34-0.14 0-0.32-0.040-0.44-0.1-0.42-0.18-0.7-0.58-0.7-1.040v-26.858c0-0.48 0.28-0.88 0.7-1.060 0.12-0.060 0.3-0.080 0.44-0.080 0.3 0 0.58 0.1 0.8 0.32z"></path>
        </symbol>
        <symbol id="icon-airbnb" viewBox="0 0 102 32">
            <path fill="#ff385c" style="fill: var(--color1, #ff385c)" d="M29.171 22.675c-0.16-0.39-0.314-0.8-0.474-1.152l-0.736-1.664-0.032-0.032c-2.195-4.8-4.538-9.683-7.021-14.483l-0.102-0.198c-0.25-0.467-0.499-0.992-0.755-1.472-0.32-0.57-0.627-1.178-1.139-1.76-0.493-0.602-1.12-1.094-1.824-1.427-0.71-0.339-1.485-0.512-2.266-0.512s-1.555 0.173-2.266 0.512c-0.704 0.333-1.331 0.826-1.824 1.427-0.467 0.582-0.819 1.19-1.139 1.76-0.25 0.525-0.499 1.030-0.755 1.504l-0.102 0.198c-2.445 4.8-4.826 9.683-7.021 14.483l-0.064 0.058c-0.218 0.518-0.48 1.062-0.73 1.638-0.154 0.352-0.314 0.73-0.474 1.152-0.435 1.101-0.57 2.291-0.403 3.462 0.173 1.171 0.64 2.272 1.363 3.206 0.73 0.928 1.683 1.658 2.771 2.106 1.094 0.448 2.278 0.608 3.45 0.454 1.12-0.147 2.202-0.525 3.174-1.101 1.293-0.73 2.541-1.792 3.936-3.322 1.402 1.53 2.675 2.592 3.942 3.334 1.222 0.717 2.598 1.114 4.013 1.146 1.632 0.006 3.219-0.576 4.454-1.651 1.235-1.069 2.048-2.554 2.278-4.179 0.269-1.165 0.179-2.381-0.256-3.494v0.006zM14.842 24.339c-1.715-2.202-2.835-4.224-3.213-5.952-0.154-0.64-0.192-1.306-0.096-1.958 0.064-0.512 0.256-0.96 0.518-1.344 0.595-0.87 1.645-1.408 2.79-1.408 0.544-0.019 1.088 0.102 1.574 0.346s0.909 0.608 1.222 1.056c0.256 0.397 0.448 0.838 0.506 1.35 0.102 0.576 0.058 1.248-0.102 1.958-0.378 1.696-1.491 3.738-3.2 5.952zM27.552 25.818c-0.115 0.819-0.442 1.6-0.947 2.259s-1.178 1.171-1.946 1.491c-0.762 0.32-1.594 0.41-2.413 0.32-0.8-0.102-1.6-0.365-2.419-0.845-1.357-0.838-2.579-1.882-3.616-3.098 2.093-2.598 3.36-4.966 3.84-7.078 0.23-0.998 0.256-1.901 0.16-2.733-0.128-0.787-0.422-1.536-0.858-2.195-0.506-0.723-1.178-1.306-1.958-1.702s-1.645-0.595-2.522-0.582c-1.85 0-3.494 0.864-4.493 2.272-0.448 0.659-0.736 1.414-0.845 2.208-0.134 0.845-0.102 1.773 0.16 2.733 0.48 2.112 1.773 4.512 3.84 7.098-1.024 1.235-2.246 2.291-3.622 3.123-0.826 0.48-1.619 0.73-2.413 0.826-1.242 0.16-2.496-0.179-3.488-0.941-0.998-0.762-1.651-1.882-1.824-3.13-0.096-0.8-0.026-1.6 0.294-2.496 0.096-0.32 0.25-0.64 0.41-1.024 0.218-0.518 0.474-1.056 0.723-1.6l0.045-0.064c2.15-4.774 4.506-9.645 6.95-14.413l0.102-0.198c0.25-0.48 0.499-0.992 0.755-1.472 0.262-0.512 0.538-0.998 0.896-1.402 0.314-0.371 0.704-0.672 1.139-0.877 0.442-0.205 0.922-0.307 1.402-0.307 0.486 0 0.966 0.102 1.402 0.307 0.442 0.205 0.826 0.506 1.139 0.877 0.346 0.403 0.64 0.89 0.896 1.402 0.25 0.48 0.499 0.998 0.762 1.472l0.096 0.198c2.438 4.768 4.787 9.638 6.982 14.413l0.032 0.026c0.262 0.518 0.48 1.101 0.73 1.6 0.16 0.39 0.32 0.704 0.416 1.030 0.192 0.902 0.294 1.702 0.192 2.502zM41.44 24.115c-0.755 0.013-1.498-0.147-2.182-0.461-0.678-0.32-1.28-0.787-1.76-1.37-1.075-1.242-1.645-2.835-1.594-4.48-0.019-1.677 0.57-3.302 1.651-4.576 0.506-0.595 1.126-1.062 1.83-1.382 0.704-0.326 1.472-0.486 2.24-0.48 0.73-0.019 1.453 0.147 2.099 0.48 0.64 0.339 1.19 0.832 1.594 1.44l0.102-1.568h2.912v12.077h-2.925l-0.096-1.76c-0.416 0.646-0.992 1.184-1.67 1.542-0.672 0.365-1.434 0.55-2.202 0.538zM42.195 21.235c0.582 0 1.088-0.16 1.568-0.448 0.442-0.32 0.8-0.742 1.075-1.248 0.25-0.512 0.384-1.12 0.384-1.805 0.038-0.589-0.077-1.178-0.333-1.715-0.262-0.531-0.653-0.986-1.133-1.325-0.467-0.288-1.011-0.442-1.562-0.442s-1.088 0.154-1.555 0.442c-0.435 0.32-0.8 0.742-1.075 1.254-0.262 0.557-0.397 1.178-0.378 1.798-0.045 0.589 0.070 1.178 0.333 1.715 0.256 0.531 0.646 0.986 1.133 1.325 0.467 0.288 0.973 0.448 1.542 0.448zM53.318 8.454c0 0.352-0.058 0.672-0.218 0.934-0.16 0.25-0.378 0.48-0.666 0.64-0.294 0.16-0.602 0.218-0.922 0.218s-0.634-0.058-0.928-0.218c-0.269-0.154-0.499-0.378-0.666-0.64-0.154-0.288-0.23-0.608-0.218-0.934 0-0.358 0.064-0.678 0.218-0.928 0.16-0.301 0.39-0.48 0.666-0.64 0.294-0.16 0.602-0.23 0.928-0.23 0.32-0.006 0.634 0.070 0.915 0.218 0.275 0.154 0.512 0.371 0.685 0.64 0.141 0.294 0.218 0.614 0.205 0.941zM49.926 23.757v-12.058h3.174v12.077h-3.181l0.006-0.019zM61.581 14.854v0.045c-0.147-0.070-0.346-0.102-0.499-0.134-0.198-0.038-0.358-0.038-0.55-0.038-0.883 0-1.555 0.262-1.99 0.8-0.48 0.55-0.698 1.318-0.698 2.31v5.926h-3.187v-12.077h2.925l0.102 1.83c0.32-0.64 0.698-1.12 1.235-1.478 0.538-0.352 1.165-0.525 1.805-0.499 0.23 0 0.448 0.019 0.64 0.058 0.096 0.032 0.16 0.032 0.218 0.058v3.2zM62.861 23.757v-17.018h3.168v6.496c0.454-0.576 0.96-1.030 1.6-1.376 1.011-0.499 2.157-0.64 3.258-0.403s2.093 0.838 2.81 1.709c1.075 1.242 1.645 2.848 1.594 4.493 0.019 1.677-0.57 3.302-1.658 4.576-0.499 0.589-1.126 1.062-1.83 1.382-0.698 0.326-1.466 0.486-2.24 0.48-0.723 0.019-1.446-0.147-2.093-0.48-0.646-0.339-1.197-0.832-1.6-1.44l-0.096 1.568-2.912 0.032v-0.019zM68.992 21.235c0.57 0 1.082-0.16 1.562-0.448 0.435-0.32 0.794-0.742 1.075-1.248 0.256-0.512 0.378-1.12 0.378-1.805 0-0.666-0.122-1.28-0.378-1.786-0.262-0.493-0.634-0.922-1.075-1.254-0.467-0.288-1.011-0.442-1.562-0.442s-1.088 0.154-1.555 0.442c-0.448 0.32-0.8 0.742-1.088 1.254-0.262 0.557-0.39 1.178-0.378 1.798-0.038 0.589 0.077 1.178 0.333 1.715 0.256 0.531 0.646 0.986 1.133 1.325 0.467 0.288 0.979 0.448 1.555 0.448zM76.486 23.763v-12.077h2.925l0.096 1.568c0.371-0.602 0.89-1.094 1.51-1.427s1.318-0.493 2.022-0.461c0.806-0.013 1.594 0.211 2.272 0.646 0.678 0.429 1.216 1.056 1.542 1.792 0.346 0.762 0.538 1.702 0.538 2.752v7.238h-3.181v-6.816c0-0.845-0.192-1.504-0.57-1.99-0.384-0.48-0.902-0.742-1.562-0.742-0.474 0-0.896 0.102-1.261 0.32-0.352 0.23-0.64 0.518-0.858 0.928-0.224 0.416-0.333 0.883-0.32 1.35v6.918h-3.155zM88.979 23.763v-17.037h3.181v6.502c0.429-0.589 0.992-1.062 1.638-1.389s1.357-0.499 2.080-0.506c0.755-0.006 1.498 0.147 2.182 0.467 0.678 0.314 1.28 0.781 1.76 1.363 1.069 1.242 1.632 2.842 1.587 4.48 0.019 1.677-0.57 3.302-1.658 4.582-0.499 0.589-1.126 1.062-1.83 1.382-0.698 0.32-1.466 0.486-2.24 0.474-0.723 0.026-1.446-0.141-2.093-0.48-0.646-0.333-1.197-0.832-1.6-1.44l-0.090 1.574-2.918 0.026zM95.142 21.235c0.576 0 1.088-0.16 1.555-0.448 0.448-0.32 0.8-0.742 1.088-1.248 0.25-0.512 0.378-1.12 0.378-1.805 0.038-0.589-0.070-1.178-0.333-1.715-0.256-0.531-0.646-0.986-1.133-1.325-0.467-0.288-1.005-0.442-1.555-0.442s-1.088 0.154-1.555 0.442c-0.442 0.32-0.8 0.742-1.075 1.254-0.282 0.557-0.41 1.178-0.384 1.798-0.038 0.589 0.077 1.178 0.333 1.715 0.256 0.531 0.653 0.986 1.133 1.325 0.474 0.288 0.954 0.448 1.549 0.448z"></path>
        </symbol>
        <symbol id="icon-fedEx" viewBox="0 0 107 32">
            <path fill="#f60" style="fill: var(--color2, #f60)" d="M79.314 31.040l8.899-9.851-8.899-9.859h9.387l4.411 4.792 4.236-4.792h9.059l-8.853 9.813 8.975 9.897h-9.425l-4.366-4.83-4.32 4.83h-9.105z"></path>
            <path fill="#f60" style="fill: var(--color2, #f60)" d="M79.314 6.918h-10.072v4.411h10.072v6.659h-10.072v6.11h10.072v6.941h-17.478v-31.040h17.478v6.918z"></path>
            <path fill="#652c8f" style="fill: var(--color3, #652c8f)" d="M54.461 0v12.701h-0.076c-1.638-1.851-3.672-2.491-6.042-2.491-4.846 0-8.495 3.246-9.783 7.543-1.455-4.731-5.227-7.634-10.819-7.634-4.541 0-8.122 2.011-9.996 5.28v-4.069h-9.387v-4.411h10.24v-6.918h-18.598v31.040h8.358v-13.051h8.343c-0.251 0.96-0.381 1.989-0.381 3.070 0 6.476 5.013 11.017 11.421 11.017 5.387 0 8.937-2.491 10.811-7.032h-7.17c-0.968 1.364-1.707 1.768-3.642 1.768-2.248 0-4.183-1.935-4.183-4.229h14.59c0.632 5.143 4.701 9.585 10.278 9.585 2.408 0 4.61-1.166 5.958-3.139h0.076v2.011h7.375v-31.040h-7.375zM23.787 18.080c0.465-1.966 2.019-3.261 3.954-3.261 2.133 0 3.604 1.25 3.992 3.261 0.16 0-7.947 0-7.947 0zM49.989 26.309c-2.72 0-4.404-2.491-4.404-5.097 0-2.789 1.463-5.47 4.404-5.47 3.048 0 4.259 2.682 4.259 5.47 0 2.636-1.288 5.097-4.259 5.097z"></path>
        </symbol>
        <symbol id="icon-google" viewBox="0 0 93 32">
            <path fill="#ea4335" style="fill: var(--color4, #ea4335)" d="M39.763 16.41c0 4.442-3.437 7.712-7.648 7.712s-7.642-3.27-7.642-7.712c0-4.474 3.43-7.718 7.642-7.718s7.648 3.245 7.648 7.718zM36.416 16.41c0-2.778-1.99-4.678-4.301-4.678-2.304 0-4.294 1.901-4.294 4.678 0 2.746 1.99 4.672 4.294 4.672 2.31 0 4.301-1.933 4.301-4.672z"></path>
            <path fill="#fbbc05" style="fill: var(--color5, #fbbc05)" d="M56.25 16.41c0 4.442-3.43 7.712-7.642 7.712s-7.648-3.27-7.648-7.712c0-4.474 3.437-7.718 7.648-7.718s7.642 3.245 7.642 7.718zM52.902 16.41c0-2.778-1.99-4.678-4.294-4.678-2.31 0-4.301 1.901-4.301 4.678 0 2.746 1.99 4.672 4.301 4.672 2.304 0 4.294-1.933 4.294-4.672z"></path>
            <path fill="#4285f4" style="fill: var(--color6, #4285f4)" d="M72.051 9.158v13.85c0 5.696-3.315 8.026-7.238 8.026-3.693 0-5.92-2.502-6.758-4.544l2.918-1.229c0.518 1.254 1.786 2.733 3.834 2.733 2.515 0 4.070-1.568 4.070-4.518v-1.107h-0.122c-0.749 0.934-2.189 1.754-4.013 1.754-3.808 0-7.296-3.36-7.296-7.686 0-4.352 3.488-7.744 7.296-7.744 1.818 0 3.264 0.819 4.013 1.728h0.122v-1.254h3.174v-0.006zM69.114 16.435c0-2.714-1.792-4.704-4.070-4.704-2.31 0-4.243 1.99-4.243 4.704 0 2.688 1.933 4.646 4.243 4.646 2.278 0 4.070-1.958 4.070-4.646z"></path>
            <path fill="#34a853" style="fill: var(--color7, #34a853)" d="M77.293 1.043v22.605h-3.264v-22.605h3.264z"></path>
            <path fill="#ea4335" style="fill: var(--color4, #ea4335)" d="M90.010 18.944l2.598 1.754c-0.838 1.254-2.861 3.424-6.349 3.424-4.333 0-7.565-3.392-7.565-7.718 0-4.589 3.264-7.712 7.187-7.712 3.955 0 5.888 3.181 6.522 4.909l0.346 0.87-10.182 4.275c0.781 1.549 1.99 2.336 3.693 2.336s2.886-0.851 3.75-2.138zM82.016 16.173l6.81-2.867c-0.378-0.96-1.504-1.632-2.829-1.632-1.702 0-4.070 1.517-3.981 4.499z"></path>
            <path fill="#4285f4" style="fill: var(--color6, #4285f4)" d="M12.122 14.4v-3.27h10.893c0.102 0.57 0.16 1.242 0.16 1.971 0 2.458-0.666 5.491-2.797 7.661-2.080 2.189-4.736 3.36-8.256 3.36-6.515 0-12-5.382-12-11.981 0-6.605 5.485-11.981 12-11.981 3.61 0 6.176 1.434 8.109 3.302l-2.278 2.31c-1.389-1.318-3.264-2.342-5.83-2.342-4.762 0-8.486 3.891-8.486 8.71s3.725 8.704 8.486 8.704c3.085 0 4.845-1.254 5.971-2.394 0.915-0.928 1.517-2.246 1.754-4.058l-7.725 0.006z"></path>
        </symbol>
        <symbol id="icon-microsoft" viewBox="0 0 155 32">
            <path fill="#737373" style="fill: var(--color8, #737373)" d="M54.676 18.429l-0.924 2.531h-0.080c-0.153-0.575-0.429-1.44-0.895-2.48l-4.953-12.036h-4.844v19.178h3.207v-11.833c0-0.742 0-1.585-0.029-2.633-0.022-0.516-0.073-0.916-0.102-1.215h0.080c0.153 0.749 0.335 1.295 0.458 1.636l5.949 13.993h2.262l5.898-14.116c0.124-0.32 0.255-0.967 0.385-1.513h0.073c-0.073 1.418-0.124 2.684-0.153 3.447v12.16h3.411v-19.156h-4.669l-5.076 12.036zM67.651 11.804h3.338v13.745h-3.338v-13.745zM69.345 6c-0.56 0-1.025 0.196-1.411 0.545s-0.589 0.793-0.589 1.338c0 0.524 0.204 0.967 0.589 1.316s0.851 0.524 1.411 0.524c0.567 0 1.055-0.204 1.411-0.524 0.385-0.349 0.589-0.793 0.589-1.316 0-0.516-0.204-0.967-0.589-1.338-0.335-0.349-0.822-0.545-1.411-0.545zM82.815 11.68c-0.618-0.124-1.258-0.196-1.876-0.196-1.513 0-2.895 0.32-4.051 0.967-1.156 0.64-2.080 1.535-2.669 2.655-0.611 1.142-0.924 2.451-0.924 3.964 0 1.316 0.313 2.487 0.902 3.549 0.589 1.040 1.411 1.884 2.509 2.458 1.055 0.567 2.284 0.865 3.673 0.865 1.585 0 2.945-0.32 4.022-0.916l0.029-0.022v-2.982l-0.131 0.102c-0.487 0.349-1.047 0.647-1.615 0.822-0.589 0.196-1.127 0.291-1.593 0.291-1.331 0-2.385-0.371-3.127-1.185-0.771-0.793-1.156-1.884-1.156-3.251 0-1.411 0.385-2.531 1.185-3.353 0.793-0.815 1.847-1.236 3.127-1.236 1.076 0 2.182 0.349 3.178 1.040l0.131 0.102v-3.149l-0.029-0.029c-0.436-0.175-0.924-0.371-1.585-0.495zM93.811 11.578c-0.815 0-1.585 0.247-2.255 0.771-0.56 0.444-0.945 1.091-1.28 1.862h-0.029v-2.407h-3.331v13.745h3.331v-7.025c0-1.185 0.262-2.182 0.822-2.902 0.567-0.742 1.28-1.113 2.153-1.113 0.313 0 0.618 0.073 1.004 0.124 0.356 0.102 0.618 0.196 0.793 0.32l0.131 0.102v-3.229l-0.080-0.022c-0.225-0.145-0.691-0.225-1.258-0.225zM102.895 11.505c-2.335 0-4.211 0.669-5.513 1.985-1.338 1.316-1.978 3.127-1.978 5.411 0 2.131 0.669 3.869 1.949 5.135 1.28 1.236 3.025 1.884 5.207 1.884 2.284 0 4.102-0.669 5.411-2.007 1.331-1.345 1.978-3.127 1.978-5.338 0-2.182-0.618-3.92-1.876-5.185-1.207-1.265-2.975-1.884-5.178-1.884zM105.556 22.073c-0.611 0.771-1.585 1.142-2.793 1.142s-2.182-0.371-2.873-1.193c-0.691-0.764-1.025-1.884-1.025-3.295 0-1.469 0.364-2.582 1.025-3.375 0.691-0.793 1.644-1.193 2.851-1.193 1.178 0 2.102 0.371 2.771 1.142 0.662 0.771 1.025 1.884 1.025 3.345-0.051 1.491-0.335 2.655-0.982 3.425zM117.382 17.513c-1.047-0.422-1.716-0.749-2.022-1.018-0.262-0.247-0.385-0.596-0.385-1.047 0-0.371 0.153-0.742 0.538-0.989s0.822-0.371 1.462-0.371c0.56 0 1.149 0.102 1.716 0.247s1.076 0.371 1.491 0.669l0.124 0.102v-3.025l-0.073-0.029c-0.385-0.145-0.902-0.298-1.513-0.422-0.618-0.095-1.185-0.145-1.644-0.145-1.593 0-2.902 0.371-3.927 1.185-1.025 0.771-1.513 1.811-1.513 3.033 0 0.64 0.102 1.215 0.335 1.687 0.233 0.465 0.567 0.916 1.025 1.287 0.465 0.349 1.127 0.742 2.051 1.113 0.771 0.327 1.36 0.575 1.724 0.771 0.356 0.196 0.589 0.422 0.764 0.596 0.131 0.196 0.211 0.444 0.211 0.771 0 0.916-0.72 1.36-2.182 1.36-0.567 0-1.156-0.095-1.847-0.32s-1.331-0.545-1.876-0.916l-0.124-0.102v3.149l0.080 0.029c0.487 0.218 1.076 0.371 1.789 0.545 0.72 0.124 1.36 0.218 1.927 0.218 1.716 0 3.127-0.371 4.131-1.185 1.025-0.793 1.564-1.811 1.564-3.127 0-0.916-0.262-1.738-0.822-2.356-0.742-0.596-1.665-1.215-3.004-1.709zM130 11.505c-2.335 0-4.204 0.669-5.513 1.985s-1.971 3.127-1.971 5.411c0 2.131 0.662 3.869 1.949 5.135 1.28 1.236 3.025 1.884 5.2 1.884 2.284 0 4.109-0.669 5.418-2.007 1.331-1.345 1.971-3.127 1.971-5.338 0-2.182-0.618-3.92-1.869-5.185-1.207-1.265-2.975-1.884-5.185-1.884zM132.647 22.073c-0.618 0.771-1.593 1.142-2.8 1.142-1.229 0-2.182-0.371-2.873-1.193-0.691-0.764-1.025-1.884-1.025-3.295 0-1.469 0.364-2.582 1.025-3.375 0.691-0.793 1.644-1.193 2.851-1.193 1.149 0 2.102 0.371 2.771 1.142 0.662 0.771 1.025 1.884 1.025 3.345 0 1.491-0.335 2.655-0.975 3.425zM154.88 14.458v-2.655h-3.36v-4.065l-0.102 0.022-3.178 0.916-0.080 0.029v3.098h-5.025v-1.738c0-0.793 0.204-1.411 0.56-1.811 0.364-0.393 0.902-0.596 1.571-0.596 0.458 0 0.945 0.102 1.484 0.327l0.131 0.073v-2.8l-0.080-0.029c-0.458-0.145-1.076-0.247-1.869-0.247-1.004 0-1.876 0.225-2.669 0.596-0.793 0.422-1.382 0.989-1.818 1.76-0.436 0.742-0.669 1.585-0.669 2.553v1.913h-2.335v2.633h2.335v11.113h3.36v-11.091h5.025v7.069c0 2.902 1.411 4.364 4.233 4.364 0.458 0 0.945-0.073 1.411-0.145 0.487-0.102 0.844-0.225 1.047-0.32l0.029-0.029v-2.655l-0.131 0.102c-0.204 0.124-0.378 0.225-0.691 0.298-0.255 0.073-0.487 0.095-0.669 0.095-0.662 0-1.127-0.145-1.462-0.516-0.305-0.349-0.458-0.916-0.458-1.76v-6.502h3.411z"></path>
            <path fill="#f25022" style="fill: var(--color9, #f25022)" d="M0 0h15.716v15.2h-15.716v-15.2z"></path>
            <path fill="#7fba00" style="fill: var(--color10, #7fba00)" d="M17.36 0h15.724v15.2h-15.724v-15.2z"></path>
            <path fill="#00a4ef" style="fill: var(--color11, #00a4ef)" d="M0 16.793h15.716v15.207h-15.716v-15.207z"></path>
            <path fill="#ffb900" style="fill: var(--color12, #ffb900)" d="M17.36 16.793h15.724v15.207h-15.724v-15.207z"></path>
        </symbol>
        <symbol id="icon-activity" viewBox="0 0 32 32">
            <path fill="#000" style="fill: var(--color1, #000)" d="M17.83 3.938l-9.356 2.879c-3.411 1.049-4.862 3.693-4.019 7.31l2.309 9.907c0.843 3.617 3.253 5.068 6.664 4.019l9.356-2.879c3.411-1.049 4.853-3.689 4.010-7.306l-2.309-9.907c-0.843-3.617-3.243-5.073-6.654-4.024z"></path>
            <path fill="#e31313" style="fill: var(--color2, #e31313)" opacity="0.5" d="M17.16 8.369l-6.18 1.902c-2.252 0.695-3.229 2.376-2.697 4.647l1.452 6.232c0.532 2.271 2.108 3.167 4.359 2.472l6.18-1.902c2.252-0.695 3.224-2.371 2.692-4.642l-1.452-6.232c-0.532-2.271-2.103-3.167-4.355-2.477z"></path>
            <path fill="#f03e3d" style="fill: var(--color3, #f03e3d)" d="M24 9.145h-8.838c-3.459 0-5.787 2.664-5.787 6.62v9.14c0 3.952 2.328 6.611 5.787 6.611h8.838c3.459 0 5.773-2.659 5.773-6.611v-9.14c0-3.957-2.314-6.62-5.773-6.62z"></path>
            <path fill="#000" style="fill: var(--color1, #000)" d="M24 8.666h-8.838q-1.662 0-2.946 0.695-0.891 0.479-1.605 1.298-0.24 0.268-0.441 0.565-1.274 1.83-1.274 4.541v9.14q0 2.697 1.26 4.522 0.211 0.302 0.455 0.58 0.714 0.814 1.605 1.298 1.284 0.69 2.946 0.69h8.838q1.662 0 2.946-0.69 0.891-0.484 1.6-1.298 0.235-0.268 0.436-0.561 1.269-1.83 1.269-4.541v-9.14q0-2.726-1.279-4.561-0.196-0.283-0.426-0.546-0.709-0.819-1.6-1.298-1.284-0.695-2.946-0.695zM15.162 9.145h8.838c3.459 0 5.773 2.664 5.773 6.62v9.14c0 3.952-2.314 6.611-5.773 6.611h-8.838c-3.459 0-5.787-2.659-5.787-6.611v-9.14c0-3.957 2.328-6.62 5.787-6.62z"></path>
            <path fill="#000" style="fill: var(--color1, #000)" d="M30.856 7.502c-0.829 0-1.499 0.738-1.499 1.643 0 0.91 0.671 1.643 1.499 1.643s1.499-0.733 1.499-1.643c0-0.436-0.158-0.853-0.441-1.164-0.278-0.307-0.661-0.479-1.059-0.479z"></path>
            <path fill="#000" style="fill: var(--color1, #000)" d="M24.911 18.352l-2.913 4.125c-0.125 0.177-0.307 0.297-0.513 0.321-0.201 0.029-0.407-0.034-0.565-0.172l-2.798-2.41-2.52 3.578c-0.182 0.316-0.537 0.46-0.862 0.345-0.331-0.115-0.546-0.455-0.527-0.829 0-0.187 0.053-0.364 0.163-0.513l3.013-4.259c0.12-0.177 0.302-0.297 0.503-0.326s0.402 0.029 0.561 0.168l2.798 2.414 2.458-3.468c0.12-0.177 0.297-0.297 0.498-0.326 0.201-0.034 0.402 0.024 0.561 0.163 0.331 0.283 0.393 0.8 0.144 1.169v0.019z"></path>
            <path fill="#000" style="fill: var(--color1, #000)" d="M18.271 20.34l2.649 2.285c0.158 0.139 0.364 0.201 0.565 0.172 0.206-0.024 0.388-0.144 0.513-0.321l2.913-4.125v-0.019c0.249-0.369 0.187-0.886-0.144-1.169-0.158-0.139-0.359-0.196-0.561-0.163-0.201 0.029-0.378 0.148-0.498 0.326l-2.343 3.31-0.115 0.158-0.144-0.125-2.654-2.29c-0.158-0.139-0.359-0.196-0.561-0.168s-0.383 0.148-0.503 0.326l-3.013 4.259c-0.11 0.148-0.163 0.326-0.163 0.513-0.019 0.374 0.196 0.714 0.527 0.829 0.326 0.115 0.68-0.029 0.862-0.345l2.52-3.579 0.148 0.125zM24.719 18.29l-2.879 4.077q-0.058 0.081-0.129 0.139-0.019 0.014-0.043 0.029-0.062 0.038-0.134 0.062-0.034 0.010-0.072 0.014-0.048 0.005-0.101 0.005-0.058-0.005-0.115-0.024-0.029-0.010-0.058-0.019-0.077-0.034-0.139-0.091l-2.961-2.549-2.649 3.756-0.005 0.010q-0.067 0.12-0.172 0.192-0.048 0.038-0.11 0.058-0.086 0.038-0.177 0.038-0.086 0.005-0.172-0.029-0.062-0.019-0.115-0.053-0.105-0.067-0.177-0.182-0.048-0.072-0.072-0.153-0.038-0.115-0.034-0.249v-0.010q0-0.139 0.043-0.254 0.034-0.077 0.081-0.144l3.013-4.264q0.067-0.101 0.163-0.163 0.005-0.005 0.010-0.005 0.062-0.043 0.134-0.062 0.034-0.010 0.067-0.019 0.053-0.005 0.101 0 0.058 0 0.115 0.019 0.029 0.010 0.058 0.019 0.077 0.034 0.139 0.086l2.961 2.553 2.582-3.646q0.053-0.077 0.125-0.134 0.019-0.014 0.038-0.029 0.062-0.043 0.134-0.062 0.034-0.014 0.067-0.019 0.053-0.005 0.101-0.005 0.058 0.005 0.115 0.019 0.029 0.010 0.058 0.019 0.072 0.034 0.134 0.086 0.019 0.014 0.038 0.034 0.067 0.067 0.115 0.158 0.014 0.029 0.024 0.058 0.034 0.086 0.048 0.182 0.010 0.072 0.005 0.148-0.005 0.053-0.019 0.101-0.019 0.086-0.058 0.163-0.019 0.038-0.043 0.072l-0.034 0.048v0.019z"></path>
        </symbol>
        <symbol id="icon-chart" viewBox="0 0 32 32">
            <path fill="#000" style="fill: var(--color1, #000)" d="M16.492 2.915l-9.334 2.669c-3.399 0.972-4.809 3.581-3.896 7.208l2.495 9.946c0.912 3.627 3.353 5.132 6.757 4.161l9.33-2.669c3.403-0.972 4.804-3.577 3.892-7.204l-2.495-9.946c-0.912-3.627-3.349-5.137-6.747-4.165z"></path>
            <path fill="#11b5e4" style="fill: var(--color2, #11b5e4)" opacity="0.5" d="M21.091 15.954l-1.697-6.852c-0.611-2.482-2.153-3.595-4.174-3.025l-6.852 1.925c-2.053 0.579-2.851 2.354-2.235 4.836l1.693 6.852c0.625 2.523 2.126 3.604 4.184 3.025l6.852-1.93c2.021-0.57 2.856-2.308 2.231-4.831z"></path>
            <path fill="#00acdd" style="fill: var(--color3, #00acdd)" d="M24.604 7.61h-9.658c-3.522 0-5.516 2.126-5.516 5.885v10.297c0 3.755 1.994 5.885 5.516 5.885h9.658c3.522 0 5.507-2.131 5.507-5.885v-10.297c0-3.759-1.985-5.885-5.507-5.885z"></path>
            <path fill="#000" style="fill: var(--color1, #000)" d="M24.604 7.153h-9.658q-2.806 0-4.293 1.401-1.679 1.579-1.679 4.941v10.297q0 3.358 1.679 4.941 1.487 1.401 4.293 1.401h9.658q2.308 0 3.777-1.113 0.338-0.255 0.63-0.566 0.073-0.082 0.146-0.164 1.41-1.642 1.41-4.498v-10.297q0-3.367-1.679-4.945-1.483-1.396-4.284-1.396zM14.946 7.61h9.658c3.522 0 5.507 2.126 5.507 5.885v10.297c0 3.755-1.985 5.885-5.507 5.885h-9.658c-3.522 0-5.516-2.131-5.516-5.885v-10.297c0-3.759 1.994-5.885 5.516-5.885z"></path>
            <path fill="#000" style="fill: var(--color1, #000)" d="M19.809 12.123c-0.469 0-0.855 0.412-0.855 0.922v11.199c0 0.5 0.386 0.912 0.855 0.912 0.478 0 0.864-0.412 0.864-0.912v-11.199c0-0.51-0.386-0.922-0.864-0.922zM14.129 16.664c0-0.51 0.386-0.922 0.855-0.922 0.478 0 0.864 0.412 0.864 0.922v7.581c0 0.5-0.386 0.912-0.864 0.912-0.469 0-0.855-0.412-0.855-0.912v-7.581zM23.706 20.665c0-0.51 0.386-0.922 0.864-0.922 0.469 0 0.855 0.412 0.855 0.922v3.579c0 0.5-0.386 0.912-0.864 0.912-0.469 0-0.855-0.412-0.855-0.912v-3.579z"></path>
            <path fill="#000" style="fill: var(--color1, #000)" d="M18.954 13.045v11.199c0 0.5 0.386 0.912 0.855 0.912 0.478 0 0.864-0.412 0.864-0.912v-11.199c0-0.51-0.386-0.922-0.864-0.922-0.469 0-0.855 0.412-0.855 0.922zM19.693 12.317q0.057-0.011 0.116-0.011 0.069 0 0.134 0.014t0.127 0.042q0.034 0.015 0.066 0.034 0.082 0.049 0.15 0.122 0.032 0.035 0.060 0.073 0.054 0.075 0.089 0.163 0.018 0.045 0.030 0.092 0.025 0.097 0.025 0.2v11.199q0 0.089-0.019 0.173-0.013 0.057-0.035 0.112-0.032 0.080-0.079 0.148-0.031 0.045-0.069 0.085-0.068 0.072-0.15 0.12-0.032 0.019-0.067 0.035-0.064 0.029-0.132 0.043-0.064 0.013-0.13 0.013-0.057 0-0.112-0.010-0.074-0.014-0.144-0.046-0.030-0.014-0.058-0.030-0.086-0.050-0.156-0.125-0.036-0.039-0.067-0.082-0.049-0.070-0.081-0.151-0.023-0.057-0.036-0.117-0.019-0.082-0.019-0.169v-11.199q0-0.1 0.023-0.194 0.012-0.050 0.032-0.099 0.035-0.088 0.088-0.163 0.027-0.038 0.059-0.073 0.072-0.077 0.16-0.128 0.026-0.015 0.054-0.028 0.068-0.031 0.14-0.045zM14.984 15.742c-0.469 0-0.855 0.412-0.855 0.922v7.581c0 0.5 0.386 0.912 0.855 0.912 0.478 0 0.864-0.412 0.864-0.912v-7.581c0-0.51-0.386-0.922-0.864-0.922zM14.311 24.245v-7.581q0-0.101 0.024-0.196 0.012-0.049 0.031-0.096 0.035-0.089 0.089-0.165 0.027-0.037 0.058-0.071 0.071-0.076 0.157-0.126 0.028-0.016 0.057-0.029 0.068-0.031 0.139-0.045 0.057-0.011 0.117-0.011 0.069 0 0.135 0.014t0.127 0.042q0.034 0.015 0.066 0.034 0.082 0.049 0.15 0.122 0.032 0.034 0.059 0.071 0.054 0.075 0.090 0.164 0.018 0.045 0.030 0.091 0.025 0.097 0.025 0.201v7.581q0 0.090-0.020 0.175-0.013 0.056-0.035 0.111-0.032 0.081-0.081 0.15-0.031 0.044-0.067 0.083-0.068 0.072-0.15 0.121-0.032 0.019-0.066 0.034-0.064 0.029-0.132 0.043-0.064 0.013-0.13 0.013-0.057 0-0.112-0.010-0.074-0.014-0.144-0.046-0.029-0.013-0.057-0.029-0.086-0.050-0.158-0.126-0.036-0.038-0.066-0.081-0.049-0.070-0.082-0.152-0.023-0.057-0.036-0.117-0.019-0.082-0.019-0.169zM24.57 19.743c-0.478 0-0.864 0.412-0.864 0.922v3.579c0 0.5 0.386 0.912 0.855 0.912 0.478 0 0.864-0.412 0.864-0.912v-3.579c0-0.51-0.386-0.922-0.855-0.922zM23.889 24.245v-3.579q0-0.102 0.024-0.198 0.012-0.048 0.031-0.094 0.034-0.087 0.087-0.161 0.028-0.039 0.061-0.075 0.068-0.072 0.15-0.121 0.032-0.019 0.067-0.035 0.062-0.028 0.127-0.042t0.134-0.014q0.058 0 0.114 0.011 0.073 0.014 0.142 0.045 0.028 0.013 0.054 0.028 0.088 0.050 0.16 0.128 0.031 0.034 0.058 0.071 0.055 0.076 0.090 0.165 0.019 0.048 0.031 0.098 0.023 0.094 0.023 0.194v3.579q0 0.089-0.019 0.173-0.013 0.057-0.035 0.112-0.032 0.080-0.079 0.148-0.031 0.045-0.069 0.085-0.068 0.072-0.15 0.12-0.032 0.019-0.067 0.035-0.064 0.029-0.132 0.043-0.064 0.013-0.13 0.013-0.057 0-0.112-0.010-0.074-0.014-0.144-0.046-0.030-0.014-0.058-0.030-0.086-0.050-0.156-0.125-0.036-0.038-0.066-0.081-0.049-0.070-0.082-0.152-0.023-0.057-0.036-0.115-0.019-0.083-0.019-0.171z"></path>
        </symbol>
        <symbol id="icon-facebook" viewBox="0 0 32 32">
            <path fill="none" stroke="#02897a" style="stroke: var(--color1, #02897a)" stroke-linejoin="round" stroke-linecap="butt" stroke-miterlimit="4" stroke-width="2.6667" d="M20 2.667c-1.773 0-3.467 0.693-4.72 1.947s-1.947 2.947-1.947 4.72v4h-4v5.333h4v10.667h5.333v-10.667h4l1.333-5.333h-5.333v-4c0-0.36 0.133-0.693 0.387-0.947s0.587-0.387 0.947-0.387h4v-5.333h-4z"></path>
        </symbol>
        <symbol id="icon-instagram" viewBox="0 0 32 32">
            <path fill="none" stroke="#02897a" style="stroke: var(--color1, #02897a)" stroke-linejoin="round" stroke-linecap="butt" stroke-miterlimit="4" stroke-width="2.6667" d="M22.667 2.667c3.68 0 6.667 2.973 6.667 6.667v13.333c0 3.68-2.987 6.667-6.667 6.667h-13.333c-3.693 0-6.667-2.987-6.667-6.667v-13.333c0-3.693 2.973-6.667 6.667-6.667h13.333z"></path>
            <path fill="none" stroke="#02897a" style="stroke: var(--color1, #02897a)" stroke-linejoin="round" stroke-linecap="butt" stroke-miterlimit="4" stroke-width="2.6667" d="M20.787 18.387c-0.52 1-1.333 1.813-2.333 2.307-1 0.507-2.147 0.68-3.253 0.507s-2.133-0.693-2.92-1.493c-0.8-0.787-1.32-1.813-1.493-2.92s0-2.253 0.507-3.253c0.493-1 1.307-1.813 2.307-2.333 0.987-0.52 2.12-0.707 3.227-0.533 1.133 0.16 2.187 0.693 3 1.493 0.8 0.813 1.333 1.867 1.507 3 0.16 1.107-0.027 2.24-0.547 3.227z"></path>
            <path fill="none" stroke="#02897a" style="stroke: var(--color1, #02897a)" stroke-linejoin="round" stroke-linecap="round" stroke-miterlimit="4" stroke-width="2.6667" d="M23.333 8.667h0.013"></path>
        </symbol>
        <symbol id="icon-twitter" viewBox="0 0 39 32">
            <path fill="none" stroke="#02897a" style="stroke: var(--color1, #02897a)" stroke-linejoin="round" stroke-linecap="butt" stroke-miterlimit="4" stroke-width="3.2090" d="M31.865 4.075c-0.979-1.123-2.262-1.909-3.69-2.262s-2.936-0.273-4.3 0.257c-1.38 0.53-2.567 1.46-3.386 2.68-0.834 1.219-1.268 2.663-1.235 4.14v1.604c-2.824 0.064-5.616-0.562-8.135-1.829s-4.685-3.145-6.306-5.439c0 0-6.418 14.441 8.023 20.859-3.305 2.23-7.252 3.353-11.232 3.209 14.441 8.023 32.090 0 32.090-18.452-0.016-0.449-0.048-0.899-0.144-1.332 1.653-1.621 2.808-3.658 3.353-5.889-1.54 1.075-3.241 1.909-5.038 2.455z"></path>
        </symbol>
        <symbol id="icon-play" viewBox="0 0 30 32">
            <path d="M27.646 12.736c2.547 1.413 2.547 5.094 0 6.507l-22.125 12.271c-2.491 1.376-5.522-0.409-5.522-3.254v-24.541c0-2.845 3.030-4.629 5.522-3.254l22.125 12.271z"></path>
        </symbol>
        <symbol id="icon-pointer_index" viewBox="0 0 28 32">
            <path fill="#02897a" style="fill: var(--color5, #02897a)" d="M9.824 0h8.273c5.426 0 9.824 4.398 9.824 9.824v8.273c0 5.426-4.398 9.824-9.824 9.824h-8.273c-5.426 0-9.824-4.398-9.824-9.824v-8.273c0-5.426 4.398-9.824 9.824-9.824z"></path>
            <path fill="#fff" style="fill: var(--color2, #fff)" d="M11.877 9.907l4.726 4.731c0.088 0.083 0.114 0.212 0.067 0.315-0.047 0.114-0.155 0.186-0.274 0.186h-1.763l0.926 2.198c0.067 0.155-0.005 0.326-0.155 0.388l-0.817 0.346c-0.155 0.067-0.326-0.010-0.388-0.155l-0.884-2.089-1.437 1.443c-0.057 0.052-0.129 0.088-0.207 0.088-0.036 0-0.083-0.010-0.114-0.026-0.109-0.047-0.181-0.15-0.181-0.269v-6.944c0-0.124 0.072-0.227 0.181-0.274 0.031-0.015 0.078-0.021 0.114-0.021 0.078 0 0.15 0.026 0.207 0.083z"></path>
        </symbol>
        <symbol id="icon-bd_index" viewBox="0 0 28 32">
            <path fill="#4d8dff" style="fill: var(--color1, #4d8dff)" d="M9.824 0h8.273c5.426 0 9.824 4.398 9.824 9.824v8.273c0 5.426-4.398 9.824-9.824 9.824h-8.273c-5.426 0-9.824-4.398-9.824-9.824v-8.273c0-5.426 4.398-9.824 9.824-9.824z"></path>
            <path fill="#fff" style="fill: var(--color2, #fff)" d="M14.814 13.392l-0.605-0.284v-0.543c0-0.259-0.212-0.471-0.471-0.471s-0.471 0.212-0.471 0.471v2.823c0 1.081-0.9 1.954-1.98 1.954-1.096 0-1.98-0.884-1.98-1.98v-1.231h1.51v1.21c0 0.264 0.212 0.471 0.471 0.471s0.476-0.207 0.476-0.471v-2.859c0-1.060 0.905-1.908 1.975-1.908 1.075 0 1.975 0.853 1.975 1.918v0.631l-0.9 0.269zM16.655 15.403v-1.272h1.515v1.231c0 1.096-0.889 1.98-1.98 1.98s-1.98-0.879-1.98-1.96v-1.241l0.605 0.284 0.9-0.269v1.246c0 0.259 0.212 0.465 0.471 0.465s0.471-0.207 0.471-0.465z"></path>
        </symbol>
        <symbol id="icon-heart_index" viewBox="0 0 28 32">
            <path fill="#740a76" style="fill: var(--color4, #740a76)" d="M9.824 0h8.273c5.426 0 9.824 4.398 9.824 9.824v8.273c0 5.426-4.398 9.824-9.824 9.824h-8.273c-5.426 0-9.824-4.398-9.824-9.824v-8.273c0-5.426 4.398-9.824 9.824-9.824z"></path>
            <path fill="#fff" style="fill: var(--color2, #fff)" d="M14.162 17.42c-0.057 0.057-0.129 0.083-0.202 0.083-0.078 0-0.15-0.026-0.207-0.083l-2.88-2.777c-0.036-0.036-1.050-0.962-1.050-2.068 0-1.355 0.822-2.161 2.203-2.161 0.812 0 1.567 0.636 1.934 0.998 0.362-0.362 1.117-0.998 1.929-0.998 1.381 0 2.208 0.807 2.208 2.161 0 1.107-1.019 2.032-1.060 2.073l-2.875 2.771z"></path>
        </symbol>
        <symbol id="icon-clock_index" viewBox="0 0 32 32">
            <path fill="#f03e3d" style="fill: var(--color3, #f03e3d)" d="M11.259 0h9.481c6.218 0 11.259 5.041 11.259 11.259v9.481c0 6.218-5.041 11.259-11.259 11.259h-9.481c-6.218 0-11.259-5.041-11.259-11.259v-9.481c0-6.218 5.041-11.259 11.259-11.259z"></path>
            <path fill="#fff" style="fill: var(--color2, #fff)" d="M19.804 11.935h-0.504c0 1.956-0.936 3.372-1.973 4.065 1.037 0.687 1.973 2.104 1.973 4.059h0.504c0.095 0 0.172 0.077 0.172 0.172v0.338c0 0.095-0.077 0.172-0.172 0.172h-7.787c-0.095 0-0.166-0.077-0.166-0.172v-0.338c0-0.095 0.071-0.172 0.166-0.172h0.51c0-1.956 0.936-3.372 1.973-4.059-1.037-0.693-1.973-2.11-1.973-4.065h-0.51c-0.095 0-0.166-0.077-0.166-0.172v-0.338c0-0.095 0.071-0.166 0.166-0.166h7.787c0.095 0 0.172 0.071 0.172 0.166v0.338c0 0.095-0.077 0.172-0.172 0.172zM18.169 13.967c0.279-0.581 0.45-1.262 0.45-2.033h-5.416c0 0.77 0.178 1.452 0.45 2.033h4.516zM13.505 18.37h4.812c-0.391-1.025-1.090-1.748-1.796-2.033h-1.215c-0.705 0.284-1.41 1.007-1.801 2.033z"></path>
        </symbol>
        <symbol id="icon-yellow-check" viewBox="0 0 32 32">
            <path fill="#f90" style="fill: var(--color4, #f90)" d="M12.667-0h6.726c6.996 0 12.667 5.671 12.667 12.667v6.667c0 6.996-5.671 12.667-12.667 12.667h-6.726c-6.996 0-12.667-5.671-12.667-12.667v-6.667c0-6.996 5.671-12.667 12.667-12.667z"></path>
            <path fill="none" stroke="#fff" style="stroke: var(--color2, #fff)" stroke-linejoin="miter" stroke-linecap="butt" stroke-miterlimit="4" stroke-width="2.6667" d="M14 1.333h4.059c6.996 0 12.667 5.671 12.667 12.667v4c0 6.996-5.671 12.667-12.667 12.667h-4.059c-6.996 0-12.667-5.671-12.667-12.667v-4c0-6.996 5.671-12.667 12.667-12.667z"></path>
            <path fill="none" stroke="#f90" style="stroke: var(--color4, #f90)" stroke-linejoin="miter" stroke-linecap="butt" stroke-miterlimit="4" stroke-width="2.6667" d="M14 1.333h4.059c6.996 0 12.667 5.671 12.667 12.667v4c0 6.996-5.671 12.667-12.667 12.667h-4.059c-6.996 0-12.667-5.671-12.667-12.667v-4c0-6.996 5.671-12.667 12.667-12.667z"></path>
            <path fill="#fff" style="fill: var(--color2, #fff)" d="M23.598 11.182c-0.283-0.283-0.75-0.283-1.033 0l-8.786 8.951-3.374-3.438c-0.283-0.293-0.75-0.293-1.033 0s-0.283 0.768 0 1.061l3.895 3.968c0.283 0.283 0.75 0.283 1.033 0l9.298-9.481c0.283-0.293 0.283-0.768 0-1.061z"></path>
        </symbol>
        <symbol id="icon-red-check" viewBox="0 0 32 32">
            <path fill="#f03e3d" style="fill: var(--color3, #f03e3d)" d="M12.667-0h6.726c6.996 0 12.667 5.671 12.667 12.667v6.667c0 6.996-5.671 12.667-12.667 12.667h-6.726c-6.996 0-12.667-5.671-12.667-12.667v-6.667c0-6.996 5.671-12.667 12.667-12.667z"></path>
            <path fill="none" stroke="#fff" style="stroke: var(--color2, #fff)" stroke-linejoin="miter" stroke-linecap="butt" stroke-miterlimit="4" stroke-width="2.6667" d="M14 1.333h4.059c6.996 0 12.667 5.671 12.667 12.667v4c0 6.996-5.671 12.667-12.667 12.667h-4.059c-6.996 0-12.667-5.671-12.667-12.667v-4c0-6.996 5.671-12.667 12.667-12.667z"></path>
            <path fill="none" stroke="#f03e3d" style="stroke: var(--color3, #f03e3d)" stroke-linejoin="miter" stroke-linecap="butt" stroke-miterlimit="4" stroke-width="2.6667" d="M14 1.333h4.059c6.996 0 12.667 5.671 12.667 12.667v4c0 6.996-5.671 12.667-12.667 12.667h-4.059c-6.996 0-12.667-5.671-12.667-12.667v-4c0-6.996 5.671-12.667 12.667-12.667z"></path>
            <path fill="#fff" style="fill: var(--color2, #fff)" d="M23.598 11.182c-0.283-0.283-0.75-0.283-1.033 0l-8.786 8.951-3.374-3.438c-0.283-0.293-0.75-0.293-1.033 0s-0.283 0.768 0 1.061l3.895 3.968c0.283 0.283 0.75 0.283 1.033 0l9.298-9.481c0.283-0.293 0.283-0.768 0-1.061z"></path>
        </symbol>
        <symbol id="icon-blue-check" viewBox="0 0 32 32">
            <path fill="#4d8dff" style="fill: var(--color1, #4d8dff)" d="M12.667-0h6.726c6.996 0 12.667 5.671 12.667 12.667v6.667c0 6.996-5.671 12.667-12.667 12.667h-6.726c-6.996 0-12.667-5.671-12.667-12.667v-6.667c0-6.996 5.671-12.667 12.667-12.667z"></path>
            <path fill="none" stroke="#fff" style="stroke: var(--color2, #fff)" stroke-linejoin="miter" stroke-linecap="butt" stroke-miterlimit="4" stroke-width="2.6667" d="M14 1.333h4.059c6.996 0 12.667 5.671 12.667 12.667v4c0 6.996-5.671 12.667-12.667 12.667h-4.059c-6.996 0-12.667-5.671-12.667-12.667v-4c0-6.996 5.671-12.667 12.667-12.667z"></path>
            <path fill="none" stroke="#4d8dff" style="stroke: var(--color1, #4d8dff)" stroke-linejoin="miter" stroke-linecap="butt" stroke-miterlimit="4" stroke-width="2.6667" d="M14 1.333h4.059c6.996 0 12.667 5.671 12.667 12.667v4c0 6.996-5.671 12.667-12.667 12.667h-4.059c-6.996 0-12.667-5.671-12.667-12.667v-4c0-6.996 5.671-12.667 12.667-12.667z"></path>
            <path fill="#fff" style="fill: var(--color2, #fff)" d="M23.598 11.182c-0.283-0.283-0.75-0.283-1.033 0l-8.786 8.951-3.374-3.438c-0.283-0.293-0.75-0.293-1.033 0s-0.283 0.768 0 1.061l3.895 3.968c0.283 0.283 0.75 0.283 1.033 0l9.298-9.481c0.283-0.293 0.283-0.768 0-1.061z"></path>
        </symbol>
    </defs>
</svg>