<svg width="17.142822" height="13.089233" viewBox="0 0 17.1428 13.0892" fill="none" xmlns="http://www.w3.org/2000/svg" xmlns:xlink="http://www.w3.org/1999/xlink">
	<desc>
			Created with Pixso.
	</desc>
	<defs/>
	<path id="" d="M10.65 5.44L9.48 4.9L9.48 3.84C9.48 3.34 9.07 2.93 8.57 2.93C8.07 2.93 7.66 3.34 7.66 3.84L7.66 9.31C7.66 11.4 5.92 13.08 3.83 13.08C1.71 13.08 0 11.37 0 9.25L0 6.88L2.92 6.88L2.92 9.22C2.92 9.73 3.33 10.13 3.83 10.13C4.33 10.13 4.75 9.73 4.75 9.22L4.75 3.68C4.75 1.64 6.5 -2.68e-5 8.57 -2.68e-5C10.65 -2.68e-5 12.39 1.65 12.39 3.71L12.39 4.92L10.65 5.44ZM14.21 9.33L14.21 6.88L17.14 6.88L17.14 9.25C17.14 11.37 15.42 13.08 13.31 13.08C11.2 13.08 9.48 11.39 9.48 9.29L9.48 6.9L10.65 7.44L12.39 6.92L12.39 9.33C12.39 9.83 12.8 10.24 13.3 10.24C13.8 10.24 14.21 9.83 14.21 9.33Z" fill="#FFFFFF" fill-opacity="1.000000" fill-rule="evenodd"/>
</svg>
