<svg width="10.286133" height="16.000854" viewBox="0 0 10.2861 16.0009" fill="none" xmlns="http://www.w3.org/2000/svg" xmlns:xlink="http://www.w3.org/1999/xlink">
	<desc>
			Created with Pixso.
	</desc>
	<defs/>
	<path id="" d="M0.97 0.16L10.11 9.31C10.28 9.47 10.33 9.72 10.24 9.92C10.15 10.14 9.94 10.28 9.71 10.28L6.3 10.28L8.09 14.53C8.22 14.83 8.08 15.16 7.79 15.28L6.21 15.95C5.91 16.08 5.58 15.93 5.46 15.65L3.75 11.61L0.97 14.4C0.86 14.5 0.72 14.57 0.57 14.57C0.5 14.57 0.41 14.55 0.35 14.52C0.14 14.43 0 14.23 0 14L0 0.57C0 0.33 0.14 0.13 0.35 0.04C0.41 0.01 0.5 -9.54e-7 0.57 -9.54e-7C0.72 -9.54e-7 0.86 0.05 0.97 0.16Z" fill="#FFFFFF" fill-opacity="1.000000" fill-rule="evenodd"/>
</svg>
